<svg xmlns="http://www.w3.org/2000/svg" width="70" height="18" viewBox="0 0 70 18" fill="none"><path d="M69.4677 6.84278C69.3404 6.85923 69.2111 6.83499 69.0984 6.77352C68.9857 6.71206 68.8953 6.61653 68.8402 6.50059C68.7851 6.38465 68.768 6.25424 68.7915 6.12803C68.815 6.00182 68.8778 5.88628 68.9709 5.79792C69.0641 5.70956 69.1827 5.65292 69.31 5.6361C69.4373 5.61929 69.5666 5.64315 69.6795 5.70429C69.7924 5.76543 69.883 5.8607 69.9385 5.97648C69.9939 6.09226 70.0114 6.22261 69.9882 6.34889C69.9643 6.47544 69.9011 6.59125 69.8077 6.67989C69.7143 6.76854 69.5953 6.82553 69.4677 6.84278V6.84278ZM69.3798 5.70487C69.274 5.70526 69.1707 5.73696 69.083 5.79598C68.9952 5.855 68.9269 5.93869 68.8867 6.0365C68.8464 6.1343 68.836 6.24183 68.8568 6.34553C68.8776 6.44922 68.9287 6.54443 69.0035 6.61915C69.0784 6.69386 69.1737 6.74473 69.2774 6.76534C69.3812 6.78595 69.4887 6.77537 69.5864 6.73495C69.6841 6.69452 69.7677 6.62605 69.8266 6.53819C69.8854 6.45032 69.9169 6.34699 69.9171 6.24123C69.9174 6.17063 69.9037 6.10069 69.8767 6.03543C69.8498 5.97017 69.8102 5.9109 69.7603 5.86103C69.7103 5.81116 69.6509 5.77168 69.5856 5.74488C69.5203 5.71807 69.4504 5.70447 69.3798 5.70487V5.70487ZM69.4993 6.29753L69.6208 6.55632H69.5299L69.4183 6.32222H69.2553V6.56423H69.1753V5.91427H69.4064C69.4347 5.91098 69.4634 5.91384 69.4905 5.92266C69.5176 5.93149 69.5424 5.94606 69.5633 5.96539C69.5843 5.98472 69.6008 6.00834 69.6117 6.03464C69.6226 6.06094 69.6278 6.08929 69.6267 6.11775C69.6277 6.15793 69.6159 6.19737 69.593 6.23039C69.5701 6.26341 69.5373 6.28831 69.4993 6.30148V6.29753ZM69.4064 5.98836H69.2553V6.2353H69.4045C69.422 6.23752 69.4398 6.23598 69.4567 6.2308C69.4736 6.22561 69.4892 6.21688 69.5024 6.2052C69.5157 6.19352 69.5263 6.17916 69.5335 6.16306C69.5408 6.14696 69.5446 6.12949 69.5446 6.11183C69.5446 6.09416 69.5408 6.0767 69.5335 6.0606C69.5263 6.0445 69.5157 6.03013 69.5024 6.01845C69.4892 6.00677 69.4736 5.99805 69.4567 5.99286C69.4398 5.98767 69.422 5.98613 69.4045 5.98836H69.4064Z" fill="black"></path><path d="M31.9603 4.60299C33.2631 4.60299 34.3191 3.57257 34.3191 2.30149C34.3191 1.03041 33.2631 0 31.9603 0C30.6576 0 29.6016 1.03041 29.6016 2.30149C29.6016 3.57257 30.6576 4.60299 31.9603 4.60299Z" fill="#C4D600"></path><path d="M10.064 7.38045V13.0581C10.064 15.1502 11.6444 16.8462 13.6002 16.8462H16.3225V16.8265C15.393 16.779 13.936 15.9375 13.936 13.874V8.54009C13.936 6.93892 15.2201 5.64692 16.7018 5.59062V5.57087H13.936V1.04492C12.9176 3.36518 11.0962 5.05723 8.64062 5.43357V5.45332C9.46146 5.69532 10.064 6.4806 10.064 7.43675" fill="black"></path><path d="M23.3287 7.21903C23.22 7.3346 23.1173 7.4551 23.0195 7.57759V7.59734C23.677 7.383 24.3822 7.36216 25.0512 7.53728C25.7201 7.7124 26.3247 8.07612 26.7928 8.58511C27.3518 9.20491 27.7132 9.97733 27.8309 10.8036H27.8507V5.49834C26.2367 5.32054 24.5654 5.89443 23.3287 7.21903Z" fill="black"></path><path d="M1.6792 3.10244V16.863H6.36714V1.30273H0V1.32249C0.867258 1.39262 1.6792 2.15518 1.6792 3.10244Z" fill="black"></path><path d="M18.8013 7.37985V16.8505H22.8215V5.57422H17.1211V5.59397C17.5733 5.62886 17.9962 5.83128 18.307 6.16161C18.6177 6.49194 18.794 6.92637 18.8013 7.37985V7.37985Z" fill="black"></path><path d="M57.9721 5.51758C57.1394 5.51758 56.1773 5.75859 55.5273 6.1695V6.19025C55.8444 6.05789 58.2496 6.16358 58.2496 8.52928V16.8443H62.1227V9.56742C62.1227 7.33112 60.2637 5.51758 57.9721 5.51758Z" fill="black"></path><path d="M64.725 5.51758C63.8933 5.51758 62.9302 5.75859 62.2812 6.1695V6.19025C62.5776 6.05394 65.0025 6.15172 65.0025 8.52928V16.8443H68.8756V9.56742C68.8756 7.33112 67.0176 5.51758 64.725 5.51758Z" fill="black"></path><path d="M29.9487 7.37985V16.8505H33.9699V5.57422H28.2695V5.59397C28.7216 5.62888 29.1444 5.83134 29.455 6.16168C29.7656 6.49203 29.9417 6.92646 29.9487 7.37985Z" fill="black"></path><path d="M36.0352 11.2106C36.0352 8.41427 38.6636 5.75125 41.9262 5.38281V5.40257C40.4258 6.02486 40.4979 8.56243 40.4979 11.2106C40.4979 13.8776 40.4495 16.4122 41.9242 17.0197V17.0394C38.6774 16.67 36.0352 13.9961 36.0352 11.2106Z" fill="black"></path><path d="M43.3555 17.0404V17.0207C44.8302 16.4132 44.7818 13.8825 44.7818 11.2116C44.7818 8.56342 44.8559 6.0219 43.3555 5.40257V5.38281C46.6151 5.75224 49.2465 8.41525 49.2465 11.2106C49.2465 14.006 46.6042 16.671 43.3555 17.0404Z" fill="black"></path><path d="M51.312 7.37393V16.8446H55.3333V5.57422H49.6328V5.59397C50.0845 5.62724 50.5073 5.82839 50.8181 6.15782C51.1289 6.48725 51.3051 6.92109 51.312 7.37393V7.37393Z" fill="black"></path></svg>