<?xml version="1.0" encoding="UTF-8"?>
<svg width="46px" height="26px" viewBox="0 0 46 26" version="1.1" xmlns="http://www.w3.org/2000/svg" xmlns:xlink="http://www.w3.org/1999/xlink">
    <!-- Generator: Sketch 63.1 (92452) - https://sketch.com -->
    <title>Group 12@2x</title>
    <desc>Created with Sketch.</desc>
    <defs>
        <polygon id="path-1" points="0.0611271709 0.125514286 4.34513165 0.125514286 4.34513165 4.1715672 0.0611271709 4.1715672"></polygon>
        <polygon id="path-3" points="0 0.109853559 15.885835 0.109853559 15.885835 15.9957404 0 15.9957404"></polygon>
        <polygon id="path-5" points="0.00251315924 0.179619833 15.8882057 0.179619833 15.8882057 16.2338624 0.00251315924 16.2338624"></polygon>
    </defs>
    <g id="Symbols" stroke="none" stroke-width="1" fill="none" fill-rule="evenodd">
        <g id="Nav/White" transform="translate(0.000000, -6.000000)">
            <g id="Group-12" transform="translate(0.000000, 6.000000)">
                <path d="M42.3492063,13.1428571 C42.3492063,19.9982943 36.7919451,25.5555556 29.9367648,25.5555556 C23.0813277,25.5555556 17.5238095,19.9982943 17.5238095,13.1428571 C17.5238095,6.28742002 23.0813277,0.73015873 29.9367648,0.73015873 C36.7919451,0.73015873 42.3492063,6.28742002 42.3492063,13.1428571" id="Fill-1" fill="#000000"></path>
                <g id="Group-5" transform="translate(41.619048, 0.730159)">
                    <mask id="mask-2" fill="white">
                        <use xlink:href="#path-1"></use>
                    </mask>
                    <g id="Clip-4"></g>
                    <path d="M4.34518319,2.14854074 C4.34518319,3.26592698 3.38601232,4.1715672 2.20315518,4.1715672 C1.02029804,4.1715672 0.0611271709,3.26592698 0.0611271709,2.14854074 C0.0611271709,1.03139788 1.02029804,0.125514286 2.20315518,0.125514286 C3.38601232,0.125514286 4.34518319,1.03139788 4.34518319,2.14854074" id="Fill-3" fill="#000000" mask="url(#mask-2)"></path>
                </g>
                <g id="Group-8">
                    <mask id="mask-4" fill="white">
                        <use xlink:href="#path-3"></use>
                    </mask>
                    <g id="Clip-7"></g>
                    <path d="M15.885835,2.94829852 C15.8428263,2.90347619 15.8018903,2.85761751 15.7578453,2.81331336 C12.1528867,-0.791386073 6.30836651,-0.791386073 2.70366708,2.81331336 C-0.901291449,6.41827189 -0.901291449,12.2627921 2.70366708,15.8677506 C2.74771214,15.9117957 2.79357081,15.9527317 2.83839314,15.9957404 L15.885835,2.94829852 Z" id="Fill-6" fill="#000000" mask="url(#mask-4)"></path>
                </g>
                <g id="Group-11" transform="translate(0.000000, 9.492063)">
                    <mask id="mask-6" fill="white">
                        <use xlink:href="#path-5"></use>
                    </mask>
                    <g id="Clip-10"></g>
                    <path d="M0.00251315924,13.3654437 C0.0455218638,13.4107414 0.0864578597,13.4570864 0.130502919,13.5015987 C3.73520236,17.1447916 9.57998167,17.1445297 13.1846811,13.5015987 C16.7893805,9.85840572 16.7893805,3.95189816 13.1846811,0.308967059 C13.140636,0.264454856 13.0945183,0.22308469 13.049696,0.179619833 L0.00251315924,13.3654437 Z" id="Fill-9" fill="#000000" mask="url(#mask-6)"></path>
                </g>
            </g>
        </g>
    </g>
</svg>